<?xml version="1.0" encoding="UTF-8"?>
<svg width="48px" height="48px" viewBox="0 0 48 48" version="1.1" xmlns="http://www.w3.org/2000/svg" xmlns:xlink="http://www.w3.org/1999/xlink">
    <g>
      <path
        fill="#1877F2"
        d="M48,24C48,10.7,37.3,0,24,0S0,10.7,0,24c0,12,8.8,21.9,20.2,23.7V30.9h-6.1V24h6.1v-5.3c0-6,3.6-9.3,9.1-9.3
			c2.6,0,5.4,0.5,5.4,0.5v5.9h-3c-3,0-3.9,1.9-3.9,3.7V24h6.7l-1.1,6.9h-5.6v16.8C39.2,45.9,48,36,48,24z"
      />
      <path
        fill="#FFFFFF"
        d="M33.3,30.9l1.1-6.9h-6.7v-4.5c0-1.9,0.9-3.7,3.9-3.7h3v-6c0,0-2.7-0.5-5.4-0.5c-5.5,0-9.1,3.3-9.1,9.3V24H14
			v6.9h6.1v16.8c1.2,0.2,2.5,0.3,3.8,0.3s2.5-0.1,3.8-0.3V30.9H33.3z"
      />
    </g>
</svg>