<?xml version="1.0" encoding="UTF-8"?>
<svg width="48px" height="48px" viewBox="0 0 48 48" version="1.1" xmlns="http://www.w3.org/2000/svg" xmlns:xlink="http://www.w3.org/1999/xlink">
    <g>
      <path
        fill="#0A66C1"
        d="M41.9,36.1c1.1,0,2,0.9,2,2s-0.9,2-2,2s-2-0.9-2-2C40,37,40.8,36.1,41.9,36.1 M41.9,35.9
			c-1.2,0-2.2,1-2.2,2.2s1,2.2,2.2,2.2s2.2-1,2.2-2.2C44.1,36.9,43.1,35.9,41.9,35.9L41.9,35.9z"
      />
      <path
        id="Path_2525_1_"
        fill="#0A66C1"
        d="M42.2,38.2c0.3,0,0.6-0.3,0.6-0.6l0,0c0-0.4-0.3-0.7-0.8-0.7h-0.9v2.4h0.3v-1h0.4l0,0
			l0.6,1h0.4L42.2,38.2L42.2,38.2z M41.9,38h-0.4v-0.8H42c0.3,0,0.5,0,0.5,0.4C42.5,38,42.2,38,41.9,38"
      />
      <path
        id="Path_2520_1_"
        fill="#0A66C1"
        d="M33.4,35.3h-4.8v-7.5c0-1.8,0-4.1-2.5-4.1s-2.9,2-2.9,4v7.6h-4.8V19.8H23V22h0.1
			c0.9-1.6,2.7-2.6,4.5-2.5c4.9,0,5.8,3.2,5.8,7.4V35.3z M13.1,17.7c-1.5,0-2.8-1.2-2.8-2.8s1.2-2.8,2.8-2.8c1.5,0,2.8,1.2,2.8,2.8
			C15.8,16.5,14.6,17.7,13.1,17.7L13.1,17.7 M15.4,35.3h-4.8V19.8h4.8V35.3z M35.8,7.7H8.2c-1.3,0-2.4,1-2.4,2.3v27.7
			C5.8,39,6.9,40,8.2,40h27.6c1.3,0,2.4-1,2.4-2.3V10C38.2,8.7,37.1,7.7,35.8,7.7"
      />
    </g>
</svg>